<svg xmlns="http://www.w3.org/2000/svg" xmlns:xlink="http://www.w3.org/1999/xlink" contentStyleType="text/css" data-diagram-type="DESCRIPTION" height="192px" preserveAspectRatio="none" style="width:632px;height:192px;background:#FFFFFF;" version="1.1" viewBox="0 0 632 192" width="632px" zoomAndPan="magnify"><defs/><g><!--entity PWA--><g class="entity" data-entity="PWA" data-source-line="1" data-uid="ent0002" id="entity_PWA"><polygon fill="#F1F1F1" points="16,16,26,6,214.9629,6,214.9629,42.2969,204.9629,52.2969,16,52.2969,16,16" style="stroke:#181818;stroke-width:0.5;"/><line style="stroke:#181818;stroke-width:0.5;" x1="204.9629" x2="214.9629" y1="16" y2="6"/><line style="stroke:#181818;stroke-width:0.5;" x1="16" x2="204.9629" y1="16" y2="16"/><line style="stroke:#181818;stroke-width:0.5;" x1="204.9629" x2="204.9629" y1="16" y2="52.2969"/><text fill="#000000" font-family="sans-serif" font-size="14" lengthAdjust="spacing" textLength="158.9629" x="31" y="38.9951">Hospital Jobs Accounts</text></g><!--entity PW--><g class="entity" data-entity="PW" data-source-line="2" data-uid="ent0003" id="entity_PW"><polygon fill="#F1F1F1" points="250.5,16,260.5,6,380.9463,6,380.9463,42.2969,370.9463,52.2969,250.5,52.2969,250.5,16" style="stroke:#181818;stroke-width:0.5;"/><line style="stroke:#181818;stroke-width:0.5;" x1="370.9463" x2="380.9463" y1="16" y2="6"/><line style="stroke:#181818;stroke-width:0.5;" x1="250.5" x2="370.9463" y1="16" y2="16"/><line style="stroke:#181818;stroke-width:0.5;" x1="370.9463" x2="370.9463" y1="16" y2="52.2969"/><text fill="#000000" font-family="sans-serif" font-size="14" lengthAdjust="spacing" textLength="90.4463" x="265.5" y="38.9951">Hospital Jobs</text></g><!--entity PWR--><g class="entity" data-entity="PWR" data-source-line="3" data-uid="ent0004" id="entity_PWR"><polygon fill="#F1F1F1" points="416,16,426,6,615.3115,6,615.3115,42.2969,605.3115,52.2969,416,52.2969,416,16" style="stroke:#181818;stroke-width:0.5;"/><line style="stroke:#181818;stroke-width:0.5;" x1="605.3115" x2="615.3115" y1="16" y2="6"/><line style="stroke:#181818;stroke-width:0.5;" x1="416" x2="605.3115" y1="16" y2="16"/><line style="stroke:#181818;stroke-width:0.5;" x1="605.3115" x2="605.3115" y1="16" y2="52.2969"/><text fill="#000000" font-family="sans-serif" font-size="14" lengthAdjust="spacing" textLength="159.3115" x="431" y="38.9951">Hospital Jobs Recruiter</text></g><!--entity API--><g class="entity" data-entity="API" data-source-line="5" data-uid="ent0005" id="entity_API"><polygon fill="#F1F1F1" points="237,139,247,129,394.0449,129,394.0449,165.2969,384.0449,175.2969,237,175.2969,237,139" style="stroke:#181818;stroke-width:0.5;"/><line style="stroke:#181818;stroke-width:0.5;" x1="384.0449" x2="394.0449" y1="139" y2="129"/><line style="stroke:#181818;stroke-width:0.5;" x1="237" x2="384.0449" y1="139" y2="139"/><line style="stroke:#181818;stroke-width:0.5;" x1="384.0449" x2="384.0449" y1="139" y2="175.2969"/><text fill="#000000" font-family="sans-serif" font-size="14" lengthAdjust="spacing" textLength="117.0449" x="252" y="161.9951">Hospital Jobs API</text></g><!--link PWA to API--><g class="link" data-entity-1="PWA" data-entity-2="API" data-source-line="7" data-uid="lnk6" id="link_PWA_API"><path d="M152.18,52.19 C188.27,74.03 237.9067,104.0538 273.9167,125.8438" fill="none" id="PWA-to-API" style="stroke:#181818;stroke-width:1;"/><polygon fill="#181818" points="279.05,128.95,273.4208,120.8684,274.7722,126.3615,269.2791,127.7129,279.05,128.95" style="stroke:#181818;stroke-width:1;"/><text fill="#000000" font-family="sans-serif" font-size="13" lengthAdjust="spacing" textLength="29.7832" x="228.5" y="95.0669">uses</text></g><!--link PWR to API--><g class="link" data-entity-1="PWR" data-entity-2="API" data-source-line="8" data-uid="lnk7" id="link_PWR_API"><path d="M478.82,52.19 C442.73,74.03 393.0933,104.0538 357.0833,125.8438" fill="none" id="PWR-to-API" style="stroke:#181818;stroke-width:1;"/><polygon fill="#181818" points="351.95,128.95,361.7209,127.7129,356.2278,126.3615,357.5792,120.8684,351.95,128.95" style="stroke:#181818;stroke-width:1;"/><text fill="#000000" font-family="sans-serif" font-size="13" lengthAdjust="spacing" textLength="29.7832" x="427.5" y="95.0669">uses</text></g><!--link PW to API--><g class="link" data-entity-1="PW" data-entity-2="API" data-source-line="9" data-uid="lnk8" id="link_PW_API"><path d="M315.5,52.19 C315.5,74.03 315.5,101.16 315.5,122.95" fill="none" id="PW-to-API" style="stroke:#181818;stroke-width:1;"/><polygon fill="#181818" points="315.5,128.95,319.5,119.95,315.5,123.95,311.5,119.95,315.5,128.95" style="stroke:#181818;stroke-width:1;"/><text fill="#000000" font-family="sans-serif" font-size="13" lengthAdjust="spacing" textLength="29.7832" x="316.5" y="95.0669">uses</text></g><!--SRC=[oyjFILLGyiWlBiWiISnHyCfFAbPmJ4xEByqhALPII2nM20XtvCh3L0ILmoQb49IQN5IQMP9Q15KKn8LLcME09rW1aERY0bgZeAjh1-8eM2cK5gSM0uM2C8NGH000]--></g></svg>
